<svg xmlns="http://www.w3.org/2000/svg" viewBox="0 0 70 45" width="192">
    <path d="M5 0Q0 0 0 5L0 40Q0 45 5 45L65 45Q70 45 70 40L70 5Q70 0 65 0z" fill="rgb(54, 54, 54)" stroke-width="0"/>
    <path d="M30 35L25 40 10 40Q5 40 5 35L5 30Q5 25 10 25L15 25 15 15 20 15 20 35zM40 5L30 5 25 10 25 30 30 30 30 25 40 25 40 35 35 35 30 40 40 40 45 35 45 15 40 15 40 20 30 20 30 10 35 10zM40 10L50 10 50 30 55 30 55 20 60 20Q65 20 65 15L65 10Q65 5 60 5L45 5z" fill="rgb(179, 179, 3)" stroke="black" stroke-width="0"/>
    <path d="M15 35L10 35 10 30 15 30zM55 10L 55 15 60 15 60 10z" fill="rgb(54, 54, 54)"/>
</svg>