<svg xmlns="http://www.w3.org/2000/svg" viewBox="0 0 130 55">
    <path d="M20 40L15 40 15 10 5 10 5 5 60 5 65 10 65 25 65 10 20 10z
        M70 15L85 15 85 40 70 40 70 25 80 25 80 20 70 20z
        M80 30L80 35 75 35 75 30z
        M90 15L90 40 95 40 95 25Q95 20 100 20L100 40 105 40 105 15 100 15
        Q95 15 95 17L95 15z" fill="none" stroke="#08b5fa" stroke-linecap="round" stroke-linejoin="round" />
    <path d="M65 30L65 45 70 50 125 50 125 45 115 45 115 15 110 15 110 45 65 45z
        M25 15L25 40 30 40 30 30 35 30 35 40 40 40 40 25 30 25 30 15z
        M45 15L45 40 60 40 60 35 50 35 50 30 60 30 60 15z
        M50 20L50 25 55 25 55 20z" fill="none" stroke="#fd9a06" stroke-linecap="round" stroke-linejoin="round" />
    <text x="70" y="10" font-size="40%" fill="#fd9a06">
        Designing success
    </text>
    <text x="15" y="50" font-size="40%" fill="#08b5fa">
        one pixel at a time
    </text>
</svg>